<?xml version="1.0" encoding="utf-8"?>
<!-- Generator: Adobe Illustrator 16.0.0, SVG Export Plug-In . SVG Version: 6.00 Build 0)  -->
<!DOCTYPE svg PUBLIC "-//W3C//DTD SVG 1.1//EN" "http://www.w3.org/Graphics/SVG/1.1/DTD/svg11.dtd">
<svg version="1.1" id="Layer_1" xmlns="http://www.w3.org/2000/svg" xmlns:xlink="http://www.w3.org/1999/xlink" x="0px" y="0px"
	 width="512px" height="512px" viewBox="0 0 512 512" enable-background="new 0 0 512 512" xml:space="preserve">
<g id="Layer_1_1_">
	<g id="leftchevron">
		<g>
			<path d="M376.49,451.97c3.359,3.25,5.25,7.62,5.319,12.29c0.08,4.681-1.67,9.101-4.93,12.46c-3.33,3.431-7.79,5.32-12.57,5.32
				c-4.569,0-8.89-1.75-12.18-4.93L135.51,267.25c-3.4-3.29-5.34-7.89-5.32-12.62c0.01-4.73,1.98-9.32,5.4-12.59L352.21,34.81
				c3.28-3.13,7.57-4.85,12.1-4.85c4.75,0,9.36,1.97,12.65,5.4c3.23,3.38,4.95,7.81,4.85,12.49c-0.1,4.67-2.02,9.03-5.399,12.26
				L172.92,254.77L376.49,451.97z"/>
		</g>
	</g>
</g>
</svg>
